<svg xmlns="http://www.w3.org/2000/svg" viewBox="0 0 379.06 104.62"><defs><style>.cls-1,.cls-2{fill:#ddd;}.cls-2{fill-rule:evenodd;}.cls-3{font-size:28.8px;fill:#888;font-family:Arial-BoldMT, Arial;font-weight:700;}</style></defs><title>Element 1</title><g id="Ebene_2" data-name="Ebene 2"><g id="Ebene_1-2" data-name="Ebene 1"><path class="cls-1" d="M271.58,11.44H285V25.72h8.84V34h-8.93V54.54c-.09,2.81-.09,5.17,3.5,5.17l4.82-.17V70.05a42.84,42.84,0,0,1-7.09.7c-4.64,0-9.73-.26-12.61-4.47-1.84-2.71-1.93-6-1.93-10.33V33.87h-6.66V25.64h6.66Z"/><path class="cls-1" d="M343.64,58.75a35.74,35.74,0,0,1-5.52,6.83,25.09,25.09,0,0,1-17.25,6.48c-13.57,0-23.11-8.67-23.11-23.65,0-11,5.43-25.23,23.46-25.23,2.72,0,10.6.27,16.47,6.57s6.3,15.33,6.48,20.5H311.51c-.09,5.7,3.15,11.39,10.42,11.39s9.89-4.82,11.55-8.06ZM330.25,41.84c-.27-1.92-.62-4.47-2.54-6.48a9.49,9.49,0,0,0-6.57-2.54,9.27,9.27,0,0,0-6.83,3,12,12,0,0,0-2.72,6Z"/><path class="cls-1" d="M364.91,29.4c3-2.54,6.22-4.55,13.22-5.25V36.06l-4.46.7c-6.48,1.14-8.41,2.1-8.41,7.88V70.4H351.78V24.59h13.13Z"/><path class="cls-1" d="M246.66,67.24a4.67,4.67,0,0,1,.93,1.61A7.4,7.4,0,0,1,248,71.1a23.25,23.25,0,0,0,.37,2.55A5.39,5.39,0,0,0,248.8,75a19.25,19.25,0,0,1,1,2.73,7.36,7.36,0,0,1,.3,1.67c0,.5,0,1.11,0,1.82a13.37,13.37,0,0,1-.3,2.36c-.28.68-.57,1.38-.85,2.09a18.69,18.69,0,0,1-.91,1.94,15.24,15.24,0,0,1-1.24,1.9A8.47,8.47,0,0,1,245.31,91a15.91,15.91,0,0,1-2.14,1.37,3.56,3.56,0,0,1-1.45.45,1.13,1.13,0,0,1-1.05-.75c-.23-.5-.44-1-.61-1.39q-.54-.54-1-1.08l-1-1.12a3.3,3.3,0,0,1-.56-1.21,6.86,6.86,0,0,1-.19-1.74,11.54,11.54,0,0,1,.38-2.5c.24-1.09.6-2.41,1.07-3.94-.11-.79-.26-1.79-.46-3s-.47-2.63-.83-4.24c-.14-.82-.39-1.84-.72-3.06s-.75-2.63-1.21-4.24a22.13,22.13,0,0,1-.83-2.09c-.3-.86-.64-1.84-1-3a8,8,0,0,0-.85-2,10.2,10.2,0,0,0-1.56,2.2A13,13,0,0,1,230,61.58c-.64.87-1.54,2-2.68,3.3-.25.32-.66.93-1.21,1.82s-1.24,2.07-2.06,3.54q-1.56,2.31-3,4.19a16.27,16.27,0,0,0-1.5,2.49,18.45,18.45,0,0,0-.8,2,1.45,1.45,0,0,0,.35.35,1.08,1.08,0,0,0,.45.19,9.29,9.29,0,0,1,.81-.54c.35-.21.75-.46,1.18-.75H222a1,1,0,0,1,1,.3,2.69,2.69,0,0,1,.46,1.37c-.07.21-.21.53-.4.94l-.83,1.69c-.36.68-2.54,2.62-6.55,5.85s-6.25,4.82-6.76,4.82a2.8,2.8,0,0,1-2.3-.91A4.42,4.42,0,0,1,206,89.4c0-.61,0-1.52,0-2.74s0-2.09,0-2.63a10.57,10.57,0,0,1,1.24-4.5,36.75,36.75,0,0,1,3.59-5.8q1.93-2.31,3.81-4.59t3.64-4.48q5.52-7.19,8.34-11.32c1.88-2.75,2.82-4.49,2.82-5.2a10.73,10.73,0,0,0-.88-2.9c-.6-1.47-1.46-3.4-2.61-5.8-.85-1.86-1.59-3.4-2.2-4.61s-1.07-2.11-1.39-2.68a3.73,3.73,0,0,1-.54-.59c-.21-.29-.46-.61-.75-1s-.58-1.13-1-1.9-.9-1.68-1.47-2.71a11.09,11.09,0,0,1-.86-1.19,12.47,12.47,0,0,0-.86-1.17,10.57,10.57,0,0,1-.89-1.51,2.86,2.86,0,0,1-.29-1.13,1.9,1.9,0,0,1,.53-1.42,2.28,2.28,0,0,1,1.62-.5,6.51,6.51,0,0,1,2.27.66,6.52,6.52,0,0,0,2.44.68,59.52,59.52,0,0,1,5.64,6.3,43.94,43.94,0,0,1,3.7,5.66c.1.25.25.57.42,1a10.71,10.71,0,0,0,.65,1.18,36.68,36.68,0,0,0,3.27,4.61,6.05,6.05,0,0,0,1-1,14.79,14.79,0,0,0,1-1.55c.43-.54.9-1.2,1.42-2s1.13-1.77,1.85-3a14.53,14.53,0,0,1,1-2.2A24.67,24.67,0,0,1,244,27.15c.25-.56.58-1.25,1-2s.89-1.72,1.43-2.79c.21-.22.46-.49.75-.84s.62-.74,1-1.2c.53-.82,1.07-1.66,1.6-2.5s1.06-1.69,1.56-2.55c1-1.43,1.73-2.53,2.31-3.3s1-1.15,1.18-1.15a1.24,1.24,0,0,1,1,.4,1.91,1.91,0,0,1,.35,1.26c0,1.08,0,2-.08,2.85s-.12,1.53-.19,2.14a11.35,11.35,0,0,0-.62,1.4q-.34.91-.72,2.25c-1,1.79-2.07,3.68-3.19,5.66s-2.32,4.09-3.57,6.31C246.92,34.63,246,36.28,245,38s-2.2,3.5-3.56,5.36a13.6,13.6,0,0,0-1.34,2.23,3.75,3.75,0,0,0-.43,1.36q0,.27,3.51,9.29T246.66,67.24Z"/><path class="cls-1" d="M125.54,29.49c1.58-1.84,5.08-6,13-6,7.53,0,10.25,2.81,12.7,5.35,2.62-2.19,6.3-5.35,13.57-5.35,7.53,0,11.38,3.77,12.78,6.58,1.14,2.45,1.23,5.6,1.23,10.51V70.4H165.47v-24c0-2.63,0-6-.52-7.8a5.92,5.92,0,0,0-5.87-4.12,7.17,7.17,0,0,0-4.38,1.41c-2.54,2-2.54,4.64-2.54,9.63V70.4H138.85V43.33c0-2-.09-4.73-1.31-6.48a6.67,6.67,0,0,0-5.26-2.37,7,7,0,0,0-3.67,1.05c-3,2-3.07,5.7-3.07,8.85v26H112.23V24.76h13.31Z"/><path class="cls-1" d="M187.44,8.47h13.31V18.89H187.44Zm0,16.12h13.31V70.4H187.44Z"/><path class="cls-2" d="M52,0a52,52,0,1,0,52,52A52,52,0,0,0,52,0Zm0,93.13A41.17,41.17,0,1,1,93.1,52,41.15,41.15,0,0,1,52,93.13Z"/><path class="cls-1" d="M51.25,61.14a17.9,17.9,0,0,1-4.94,5.6,15.63,15.63,0,0,1-9,2.84c-6,0-15.6-3.62-15.6-16.46,0-9.16,5.3-16.87,15.78-16.87a15,15,0,0,1,13.44,7.53L44,47.7a7.71,7.71,0,0,0-2.65-3.32,6.21,6.21,0,0,0-3.5-1.08c-5,0-6.68,5.73-6.68,9.52,0,4.16,2,9.4,7,9.4a6.16,6.16,0,0,0,4.7-2.17,6.52,6.52,0,0,0,1.39-2.53Z"/><path class="cls-1" d="M81.37,61.14a17.77,17.77,0,0,1-4.94,5.6,15.63,15.63,0,0,1-9,2.84c-6,0-15.6-3.62-15.6-16.46,0-9.16,5.3-16.87,15.78-16.87A15,15,0,0,1,81,43.78L74.14,47.7a7.64,7.64,0,0,0-2.65-3.32A6.18,6.18,0,0,0,68,43.3c-5,0-6.69,5.73-6.69,9.52,0,4.16,2,9.4,7,9.4A6.19,6.19,0,0,0,73,60.05a6.63,6.63,0,0,0,1.38-2.53Z"/><text class="cls-3" transform="translate(110.23 93.77)"><tspan xml:space="preserve">DOWN       LOADER</tspan></text></g></g></svg>